<mxfile host="app.diagrams.net" modified="2024-04-07T07:44:34.332Z" agent="Mozilla/5.0 (Windows NT 10.0; Win64; x64) AppleWebKit/537.36 (KHTML, like Gecko) Chrome/123.0.0.0 Safari/537.36" etag="qaSISxpe81SeyIWSMyrh" version="24.2.2" type="github">
  <diagram id="C5RBs43oDa-KdzZeNtuy" name="Page-1">
    <mxGraphModel dx="1434" dy="806" grid="1" gridSize="10" guides="1" tooltips="1" connect="1" arrows="1" fold="1" page="1" pageScale="1" pageWidth="827" pageHeight="1169" math="0" shadow="0">
      <root>
        <mxCell id="WIyWlLk6GJQsqaUBKTNV-0" />
        <mxCell id="WIyWlLk6GJQsqaUBKTNV-1" parent="WIyWlLk6GJQsqaUBKTNV-0" />
        <mxCell id="-JxzGYaePGcoFu2CMMwK-119" value="Clone Sahaj Repository" style="whiteSpace=wrap;strokeWidth=2;fillColor=#b0e3e6;strokeColor=#0e8088;" vertex="1" parent="WIyWlLk6GJQsqaUBKTNV-1">
          <mxGeometry x="384" y="170" width="136" height="34" as="geometry" />
        </mxCell>
        <mxCell id="-JxzGYaePGcoFu2CMMwK-120" value="Developer 1" style="whiteSpace=wrap;strokeWidth=2;fillColor=#b0e3e6;strokeColor=#0e8088;" vertex="1" parent="WIyWlLk6GJQsqaUBKTNV-1">
          <mxGeometry x="272" y="314" width="100" height="34" as="geometry" />
        </mxCell>
        <mxCell id="-JxzGYaePGcoFu2CMMwK-121" value="Developer 2" style="whiteSpace=wrap;strokeWidth=2;fillColor=#b0e3e6;strokeColor=#0e8088;" vertex="1" parent="WIyWlLk6GJQsqaUBKTNV-1">
          <mxGeometry x="422" y="314" width="100" height="34" as="geometry" />
        </mxCell>
        <mxCell id="-JxzGYaePGcoFu2CMMwK-122" value="Developer 3" style="whiteSpace=wrap;strokeWidth=2;fillColor=#b0e3e6;strokeColor=#0e8088;" vertex="1" parent="WIyWlLk6GJQsqaUBKTNV-1">
          <mxGeometry x="573" y="314" width="100" height="34" as="geometry" />
        </mxCell>
        <mxCell id="-JxzGYaePGcoFu2CMMwK-123" value="Branch Created?" style="rhombus;strokeWidth=2;whiteSpace=wrap;fillColor=#b0e3e6;strokeColor=#0e8088;" vertex="1" parent="WIyWlLk6GJQsqaUBKTNV-1">
          <mxGeometry x="378" y="398" width="166" height="166" as="geometry" />
        </mxCell>
        <mxCell id="-JxzGYaePGcoFu2CMMwK-124" value="Work on Code" style="rounded=1;absoluteArcSize=1;arcSize=14;whiteSpace=wrap;strokeWidth=2;fillColor=#b0e3e6;strokeColor=#0e8088;" vertex="1" parent="WIyWlLk6GJQsqaUBKTNV-1">
          <mxGeometry x="404" y="633" width="115" height="34" as="geometry" />
        </mxCell>
        <mxCell id="-JxzGYaePGcoFu2CMMwK-125" value="Commit Changes" style="rounded=1;absoluteArcSize=1;arcSize=14;whiteSpace=wrap;strokeWidth=2;fillColor=#b0e3e6;strokeColor=#0e8088;" vertex="1" parent="WIyWlLk6GJQsqaUBKTNV-1">
          <mxGeometry x="214" y="717" width="135" height="34" as="geometry" />
        </mxCell>
        <mxCell id="-JxzGYaePGcoFu2CMMwK-126" value="Pull Request Needed?" style="rhombus;strokeWidth=2;whiteSpace=wrap;fillColor=#b0e3e6;strokeColor=#0e8088;" vertex="1" parent="WIyWlLk6GJQsqaUBKTNV-1">
          <mxGeometry x="180" y="801" width="203" height="203" as="geometry" />
        </mxCell>
        <mxCell id="-JxzGYaePGcoFu2CMMwK-127" value="Create Pull Request" style="rounded=1;absoluteArcSize=1;arcSize=14;whiteSpace=wrap;strokeWidth=2;fillColor=#b0e3e6;strokeColor=#0e8088;" vertex="1" parent="WIyWlLk6GJQsqaUBKTNV-1">
          <mxGeometry x="203" y="1072" width="157" height="34" as="geometry" />
        </mxCell>
        <mxCell id="-JxzGYaePGcoFu2CMMwK-128" value="Push Branch" style="rounded=1;absoluteArcSize=1;arcSize=14;whiteSpace=wrap;strokeWidth=2;fillColor=#b0e3e6;strokeColor=#0e8088;" vertex="1" parent="WIyWlLk6GJQsqaUBKTNV-1">
          <mxGeometry x="540" y="1586" width="102" height="34" as="geometry" />
        </mxCell>
        <mxCell id="-JxzGYaePGcoFu2CMMwK-129" value="GitHub" style="whiteSpace=wrap;strokeWidth=2;fillColor=#b0e3e6;strokeColor=#0e8088;" vertex="1" parent="WIyWlLk6GJQsqaUBKTNV-1">
          <mxGeometry x="249" y="1156" width="65" height="34" as="geometry" />
        </mxCell>
        <mxCell id="-JxzGYaePGcoFu2CMMwK-130" value="Review Required?" style="rhombus;strokeWidth=2;whiteSpace=wrap;fillColor=#b0e3e6;strokeColor=#0e8088;" vertex="1" parent="WIyWlLk6GJQsqaUBKTNV-1">
          <mxGeometry x="194" y="1259" width="174" height="174" as="geometry" />
        </mxCell>
        <mxCell id="-JxzGYaePGcoFu2CMMwK-131" value="Request Review" style="rounded=1;absoluteArcSize=1;arcSize=14;whiteSpace=wrap;strokeWidth=2;fillColor=#b0e3e6;strokeColor=#0e8088;" vertex="1" parent="WIyWlLk6GJQsqaUBKTNV-1">
          <mxGeometry x="280" y="1502" width="128" height="34" as="geometry" />
        </mxCell>
        <mxCell id="-JxzGYaePGcoFu2CMMwK-132" value="Merge Request" style="rounded=1;absoluteArcSize=1;arcSize=14;whiteSpace=wrap;strokeWidth=2;fillColor=#b0e3e6;strokeColor=#0e8088;" vertex="1" parent="WIyWlLk6GJQsqaUBKTNV-1">
          <mxGeometry x="356" y="1921" width="121" height="34" as="geometry" />
        </mxCell>
        <mxCell id="-JxzGYaePGcoFu2CMMwK-133" value="GitHub" style="whiteSpace=wrap;strokeWidth=2;fillColor=#b0e3e6;strokeColor=#0e8088;" vertex="1" parent="WIyWlLk6GJQsqaUBKTNV-1">
          <mxGeometry x="311" y="1586" width="65" height="34" as="geometry" />
        </mxCell>
        <mxCell id="-JxzGYaePGcoFu2CMMwK-134" value="Changes Required?" style="rhombus;strokeWidth=2;whiteSpace=wrap;fillColor=#b0e3e6;strokeColor=#0e8088;" vertex="1" parent="WIyWlLk6GJQsqaUBKTNV-1">
          <mxGeometry x="326" y="1670" width="182" height="182" as="geometry" />
        </mxCell>
        <mxCell id="-JxzGYaePGcoFu2CMMwK-135" value="More Changes?" style="rhombus;strokeWidth=2;whiteSpace=wrap;fillColor=#b0e3e6;strokeColor=#0e8088;" vertex="1" parent="WIyWlLk6GJQsqaUBKTNV-1">
          <mxGeometry x="469" y="2005" width="154" height="154" as="geometry" />
        </mxCell>
        <mxCell id="-JxzGYaePGcoFu2CMMwK-136" value="Finish" style="rounded=1;absoluteArcSize=1;arcSize=14;whiteSpace=wrap;strokeWidth=2;fillColor=#b0e3e6;strokeColor=#0e8088;" vertex="1" parent="WIyWlLk6GJQsqaUBKTNV-1">
          <mxGeometry x="518" y="2228" width="57" height="34" as="geometry" />
        </mxCell>
        <mxCell id="-JxzGYaePGcoFu2CMMwK-137" value="GitHub" style="whiteSpace=wrap;strokeWidth=2;fillColor=#b0e3e6;strokeColor=#0e8088;" vertex="1" parent="WIyWlLk6GJQsqaUBKTNV-1">
          <mxGeometry x="559" y="1744" width="65" height="34" as="geometry" />
        </mxCell>
        <mxCell id="-JxzGYaePGcoFu2CMMwK-138" value="" style="curved=1;startArrow=none;endArrow=block;exitX=0.0876283618916316;exitY=1;entryX=0.50041015625;entryY=0;rounded=0;fillColor=#b0e3e6;strokeColor=#0e8088;" edge="1" parent="WIyWlLk6GJQsqaUBKTNV-1" source="-JxzGYaePGcoFu2CMMwK-119" target="-JxzGYaePGcoFu2CMMwK-120">
          <mxGeometry relative="1" as="geometry">
            <Array as="points">
              <mxPoint x="322" y="289" />
            </Array>
          </mxGeometry>
        </mxCell>
        <mxCell id="-JxzGYaePGcoFu2CMMwK-139" value="" style="curved=1;startArrow=none;endArrow=block;exitX=0.535498525582108;exitY=1;entryX=0.50525390625;entryY=0;rounded=0;fillColor=#b0e3e6;strokeColor=#0e8088;" edge="1" parent="WIyWlLk6GJQsqaUBKTNV-1" source="-JxzGYaePGcoFu2CMMwK-119" target="-JxzGYaePGcoFu2CMMwK-121">
          <mxGeometry relative="1" as="geometry">
            <Array as="points">
              <mxPoint x="473" y="289" />
            </Array>
          </mxGeometry>
        </mxCell>
        <mxCell id="-JxzGYaePGcoFu2CMMwK-140" value="" style="curved=1;startArrow=none;endArrow=block;exitX=0.9833686892725841;exitY=1;entryX=0.50009765625;entryY=0;rounded=0;fillColor=#b0e3e6;strokeColor=#0e8088;" edge="1" parent="WIyWlLk6GJQsqaUBKTNV-1" source="-JxzGYaePGcoFu2CMMwK-119" target="-JxzGYaePGcoFu2CMMwK-122">
          <mxGeometry relative="1" as="geometry">
            <Array as="points">
              <mxPoint x="623" y="289" />
            </Array>
          </mxGeometry>
        </mxCell>
        <mxCell id="-JxzGYaePGcoFu2CMMwK-141" value="" style="curved=1;startArrow=none;endArrow=block;exitX=0.50041015625;exitY=1;entryX=0.0022119728915662652;entryY=0.11236890077881354;rounded=0;fillColor=#b0e3e6;strokeColor=#0e8088;" edge="1" parent="WIyWlLk6GJQsqaUBKTNV-1" source="-JxzGYaePGcoFu2CMMwK-120" target="-JxzGYaePGcoFu2CMMwK-123">
          <mxGeometry relative="1" as="geometry">
            <Array as="points">
              <mxPoint x="322" y="373" />
            </Array>
          </mxGeometry>
        </mxCell>
        <mxCell id="-JxzGYaePGcoFu2CMMwK-142" value="" style="curved=1;startArrow=none;endArrow=block;exitX=0.50525390625;exitY=1;entryX=0.5537259573971387;entryY=0;rounded=0;fillColor=#b0e3e6;strokeColor=#0e8088;" edge="1" parent="WIyWlLk6GJQsqaUBKTNV-1" source="-JxzGYaePGcoFu2CMMwK-121" target="-JxzGYaePGcoFu2CMMwK-123">
          <mxGeometry relative="1" as="geometry">
            <Array as="points">
              <mxPoint x="473" y="373" />
            </Array>
          </mxGeometry>
        </mxCell>
        <mxCell id="-JxzGYaePGcoFu2CMMwK-143" value="" style="curved=1;startArrow=none;endArrow=block;exitX=0.50009765625;exitY=1;entryX=1.0010824548192772;entryY=0.16622510447179434;rounded=0;fillColor=#b0e3e6;strokeColor=#0e8088;" edge="1" parent="WIyWlLk6GJQsqaUBKTNV-1" source="-JxzGYaePGcoFu2CMMwK-122" target="-JxzGYaePGcoFu2CMMwK-123">
          <mxGeometry relative="1" as="geometry">
            <Array as="points">
              <mxPoint x="623" y="373" />
            </Array>
          </mxGeometry>
        </mxCell>
        <mxCell id="-JxzGYaePGcoFu2CMMwK-144" value="Yes" style="curved=1;startArrow=none;endArrow=block;exitX=0.5016472138554217;exitY=0.9988704819277109;entryX=0.4980298913043478;entryY=-0.0055147058823529415;rounded=0;fillColor=#b0e3e6;strokeColor=#0e8088;" edge="1" parent="WIyWlLk6GJQsqaUBKTNV-1" source="-JxzGYaePGcoFu2CMMwK-123" target="-JxzGYaePGcoFu2CMMwK-124">
          <mxGeometry relative="1" as="geometry">
            <Array as="points" />
          </mxGeometry>
        </mxCell>
        <mxCell id="-JxzGYaePGcoFu2CMMwK-145" value="No" style="curved=1;startArrow=none;endArrow=block;exitX=1.0010824548192772;exitY=0.13184720879820297;entryX=1.0010824548192772;entryY=0.867023273129508;rounded=0;fillColor=#b0e3e6;strokeColor=#0e8088;" edge="1" parent="WIyWlLk6GJQsqaUBKTNV-1" source="-JxzGYaePGcoFu2CMMwK-123" target="-JxzGYaePGcoFu2CMMwK-123">
          <mxGeometry relative="1" as="geometry">
            <Array as="points">
              <mxPoint x="574" y="398" />
              <mxPoint x="581" y="398" />
              <mxPoint x="589" y="481" />
              <mxPoint x="581" y="564" />
              <mxPoint x="574" y="564" />
            </Array>
          </mxGeometry>
        </mxCell>
        <mxCell id="-JxzGYaePGcoFu2CMMwK-146" value="" style="curved=1;startArrow=none;endArrow=block;exitX=-0.0011548913043478261;exitY=0.888458304663474;entryX=0.49835069444444446;entryY=-0.0055147058823529415;rounded=0;fillColor=#b0e3e6;strokeColor=#0e8088;" edge="1" parent="WIyWlLk6GJQsqaUBKTNV-1" source="-JxzGYaePGcoFu2CMMwK-124" target="-JxzGYaePGcoFu2CMMwK-125">
          <mxGeometry relative="1" as="geometry">
            <Array as="points">
              <mxPoint x="281" y="692" />
            </Array>
          </mxGeometry>
        </mxCell>
        <mxCell id="-JxzGYaePGcoFu2CMMwK-147" value="" style="curved=1;startArrow=none;endArrow=block;exitX=0.49835069444444446;exitY=0.9944852941176471;entryX=0.498903171182266;entryY=-0.0009236453201970443;rounded=0;fillColor=#b0e3e6;strokeColor=#0e8088;" edge="1" parent="WIyWlLk6GJQsqaUBKTNV-1" source="-JxzGYaePGcoFu2CMMwK-125" target="-JxzGYaePGcoFu2CMMwK-126">
          <mxGeometry relative="1" as="geometry">
            <Array as="points" />
          </mxGeometry>
        </mxCell>
        <mxCell id="-JxzGYaePGcoFu2CMMwK-148" value="Yes" style="curved=1;startArrow=none;endArrow=block;exitX=0.498903171182266;exitY=0.996882697044335;entryX=0.49858180732484075;entryY=0.010799632352941176;rounded=0;fillColor=#b0e3e6;strokeColor=#0e8088;" edge="1" parent="WIyWlLk6GJQsqaUBKTNV-1" source="-JxzGYaePGcoFu2CMMwK-126" target="-JxzGYaePGcoFu2CMMwK-127">
          <mxGeometry relative="1" as="geometry">
            <Array as="points" />
          </mxGeometry>
        </mxCell>
        <mxCell id="-JxzGYaePGcoFu2CMMwK-149" value="No" style="curved=1;startArrow=none;endArrow=block;exitX=0.997806342364532;exitY=0.716679478280623;entryX=0.5001531862745098;entryY=0.002297794117647059;rounded=0;fillColor=#b0e3e6;strokeColor=#0e8088;" edge="1" parent="WIyWlLk6GJQsqaUBKTNV-1" source="-JxzGYaePGcoFu2CMMwK-126" target="-JxzGYaePGcoFu2CMMwK-128">
          <mxGeometry relative="1" as="geometry">
            <Array as="points">
              <mxPoint x="591" y="1038" />
            </Array>
          </mxGeometry>
        </mxCell>
        <mxCell id="-JxzGYaePGcoFu2CMMwK-150" value="" style="curved=1;startArrow=none;endArrow=block;exitX=0.49858180732484075;exitY=1.0107996323529411;entryX=0.49657451923076923;entryY=0.010799632352941176;rounded=0;fillColor=#b0e3e6;strokeColor=#0e8088;" edge="1" parent="WIyWlLk6GJQsqaUBKTNV-1" source="-JxzGYaePGcoFu2CMMwK-127" target="-JxzGYaePGcoFu2CMMwK-129">
          <mxGeometry relative="1" as="geometry">
            <Array as="points" />
          </mxGeometry>
        </mxCell>
        <mxCell id="-JxzGYaePGcoFu2CMMwK-151" value="" style="curved=1;startArrow=none;endArrow=block;exitX=0.49657451923076923;exitY=1.0107996323529411;entryX=0.5015939295977011;entryY=0.002110272988505747;rounded=0;fillColor=#b0e3e6;strokeColor=#0e8088;" edge="1" parent="WIyWlLk6GJQsqaUBKTNV-1" source="-JxzGYaePGcoFu2CMMwK-129" target="-JxzGYaePGcoFu2CMMwK-130">
          <mxGeometry relative="1" as="geometry">
            <Array as="points" />
          </mxGeometry>
        </mxCell>
        <mxCell id="-JxzGYaePGcoFu2CMMwK-152" value="Yes" style="curved=1;startArrow=none;endArrow=block;exitX=0.7581599433928764;exitY=1.0004489942528736;entryX=0.497283935546875;entryY=0.002297794117647059;rounded=0;fillColor=#b0e3e6;strokeColor=#0e8088;" edge="1" parent="WIyWlLk6GJQsqaUBKTNV-1" source="-JxzGYaePGcoFu2CMMwK-130" target="-JxzGYaePGcoFu2CMMwK-131">
          <mxGeometry relative="1" as="geometry">
            <Array as="points">
              <mxPoint x="344" y="1468" />
            </Array>
          </mxGeometry>
        </mxCell>
        <mxCell id="-JxzGYaePGcoFu2CMMwK-153" value="No" style="curved=1;startArrow=none;endArrow=block;exitX=0.29550400124450615;exitY=1.0004489942528736;entryX=-0.000016141528925619835;entryY=0.007011121364197446;rounded=0;fillColor=#b0e3e6;strokeColor=#0e8088;" edge="1" parent="WIyWlLk6GJQsqaUBKTNV-1" source="-JxzGYaePGcoFu2CMMwK-130" target="-JxzGYaePGcoFu2CMMwK-132">
          <mxGeometry relative="1" as="geometry">
            <Array as="points">
              <mxPoint x="231" y="1468" />
              <mxPoint x="231" y="1887" />
            </Array>
          </mxGeometry>
        </mxCell>
        <mxCell id="-JxzGYaePGcoFu2CMMwK-154" value="" style="curved=1;startArrow=none;endArrow=block;exitX=0.497283935546875;exitY=1.002297794117647;entryX=0.50234375;entryY=0.002297794117647059;rounded=0;fillColor=#b0e3e6;strokeColor=#0e8088;" edge="1" parent="WIyWlLk6GJQsqaUBKTNV-1" source="-JxzGYaePGcoFu2CMMwK-131" target="-JxzGYaePGcoFu2CMMwK-133">
          <mxGeometry relative="1" as="geometry">
            <Array as="points" />
          </mxGeometry>
        </mxCell>
        <mxCell id="-JxzGYaePGcoFu2CMMwK-155" value="" style="curved=1;startArrow=none;endArrow=block;exitX=0.50234375;exitY=1.002297794117647;entryX=0.18333174114289927;entryY=0.00042925824175824175;rounded=0;fillColor=#b0e3e6;strokeColor=#0e8088;" edge="1" parent="WIyWlLk6GJQsqaUBKTNV-1" source="-JxzGYaePGcoFu2CMMwK-133" target="-JxzGYaePGcoFu2CMMwK-134">
          <mxGeometry relative="1" as="geometry">
            <Array as="points">
              <mxPoint x="344" y="1645" />
            </Array>
          </mxGeometry>
        </mxCell>
        <mxCell id="-JxzGYaePGcoFu2CMMwK-156" value="Yes" style="curved=1;startArrow=none;endArrow=block;exitX=0.6903098330304269;exitY=0.00042925824175824175;entryX=0.4980298913043478;entryY=0.9944852941176471;rounded=0;fillColor=#b0e3e6;strokeColor=#0e8088;" edge="1" parent="WIyWlLk6GJQsqaUBKTNV-1" source="-JxzGYaePGcoFu2CMMwK-134" target="-JxzGYaePGcoFu2CMMwK-124">
          <mxGeometry relative="1" as="geometry">
            <Array as="points">
              <mxPoint x="461" y="1645" />
            </Array>
          </mxGeometry>
        </mxCell>
        <mxCell id="-JxzGYaePGcoFu2CMMwK-157" value="No" style="curved=1;startArrow=none;endArrow=block;exitX=0.4975854223901099;exitY=1.0003434065934067;entryX=0.5005003873966942;entryY=0.001838235294117647;rounded=0;fillColor=#b0e3e6;strokeColor=#0e8088;" edge="1" parent="WIyWlLk6GJQsqaUBKTNV-1" source="-JxzGYaePGcoFu2CMMwK-134" target="-JxzGYaePGcoFu2CMMwK-132">
          <mxGeometry relative="1" as="geometry">
            <Array as="points" />
          </mxGeometry>
        </mxCell>
        <mxCell id="-JxzGYaePGcoFu2CMMwK-158" value="" style="curved=1;startArrow=none;endArrow=block;exitX=0.5005003873966942;exitY=1.0018382352941178;entryX=0.0006721793831168831;entryY=0.10682546759077668;rounded=0;fillColor=#b0e3e6;strokeColor=#0e8088;" edge="1" parent="WIyWlLk6GJQsqaUBKTNV-1" source="-JxzGYaePGcoFu2CMMwK-132" target="-JxzGYaePGcoFu2CMMwK-135">
          <mxGeometry relative="1" as="geometry">
            <Array as="points">
              <mxPoint x="417" y="1980" />
            </Array>
          </mxGeometry>
        </mxCell>
        <mxCell id="-JxzGYaePGcoFu2CMMwK-159" value="Yes" style="curved=1;startArrow=none;endArrow=block;exitX=1.0032594358766234;exitY=0.12362122982718374;entryX=0.9972146739130435;entryY=0.8160376676575304;rounded=0;fillColor=#b0e3e6;strokeColor=#0e8088;" edge="1" parent="WIyWlLk6GJQsqaUBKTNV-1" source="-JxzGYaePGcoFu2CMMwK-135" target="-JxzGYaePGcoFu2CMMwK-124">
          <mxGeometry relative="1" as="geometry">
            <Array as="points">
              <mxPoint x="682" y="1980" />
              <mxPoint x="682" y="692" />
            </Array>
          </mxGeometry>
        </mxCell>
        <mxCell id="-JxzGYaePGcoFu2CMMwK-160" value="No" style="curved=1;startArrow=none;endArrow=block;exitX=0.5019658076298701;exitY=1.0029931006493507;entryX=0.4965391995614035;entryY=0.013556985294117647;rounded=0;fillColor=#b0e3e6;strokeColor=#0e8088;" edge="1" parent="WIyWlLk6GJQsqaUBKTNV-1" source="-JxzGYaePGcoFu2CMMwK-135" target="-JxzGYaePGcoFu2CMMwK-136">
          <mxGeometry relative="1" as="geometry">
            <Array as="points" />
          </mxGeometry>
        </mxCell>
        <mxCell id="-JxzGYaePGcoFu2CMMwK-161" value="" style="curved=1;startArrow=none;endArrow=block;exitX=0.5001531862745098;exitY=1.002297794117647;entryX=0.49254807692307695;entryY=0.002068014705882353;rounded=0;fillColor=#b0e3e6;strokeColor=#0e8088;" edge="1" parent="WIyWlLk6GJQsqaUBKTNV-1" source="-JxzGYaePGcoFu2CMMwK-128" target="-JxzGYaePGcoFu2CMMwK-137">
          <mxGeometry relative="1" as="geometry">
            <Array as="points" />
          </mxGeometry>
        </mxCell>
        <mxCell id="-JxzGYaePGcoFu2CMMwK-162" value="" style="curved=1;startArrow=none;endArrow=block;exitX=0.49254807692307695;exitY=1.0020680147058822;entryX=0.9764269424997992;entryY=0.001838235294117647;rounded=0;fillColor=#b0e3e6;strokeColor=#0e8088;" edge="1" parent="WIyWlLk6GJQsqaUBKTNV-1" source="-JxzGYaePGcoFu2CMMwK-137" target="-JxzGYaePGcoFu2CMMwK-132">
          <mxGeometry relative="1" as="geometry">
            <Array as="points">
              <mxPoint x="591" y="1887" />
            </Array>
          </mxGeometry>
        </mxCell>
        <mxCell id="-JxzGYaePGcoFu2CMMwK-166" value="" style="edgeStyle=orthogonalEdgeStyle;rounded=0;orthogonalLoop=1;jettySize=auto;html=1;fillColor=#b0e3e6;strokeColor=#0e8088;" edge="1" parent="WIyWlLk6GJQsqaUBKTNV-1" source="-JxzGYaePGcoFu2CMMwK-164" target="-JxzGYaePGcoFu2CMMwK-119">
          <mxGeometry relative="1" as="geometry" />
        </mxCell>
        <mxCell id="-JxzGYaePGcoFu2CMMwK-164" value="" style="dashed=0;outlineConnect=0;html=1;align=center;labelPosition=center;verticalLabelPosition=bottom;verticalAlign=top;shape=mxgraph.weblogos.github;fillColor=#b0e3e6;strokeColor=#0e8088;" vertex="1" parent="WIyWlLk6GJQsqaUBKTNV-1">
          <mxGeometry x="404" y="10" width="96" height="100" as="geometry" />
        </mxCell>
      </root>
    </mxGraphModel>
  </diagram>
</mxfile>
